<?xml version="1.0" standalone="no"?>
<!DOCTYPE svg PUBLIC "-//W3C//DTD SVG 20010904//EN"
 "http://www.w3.org/TR/2001/REC-SVG-20010904/DTD/svg10.dtd">
<svg version="1.0" xmlns="http://www.w3.org/2000/svg"
 width="512.000000pt" height="512.000000pt" viewBox="0 0 512.000000 512.000000"
 preserveAspectRatio="xMidYMid meet">
<metadata>
Created by potrace 1.14, written by Peter Selinger 2001-2017
</metadata>
<g transform="translate(0.000000,512.000000) scale(0.100000,-0.100000)"
fill="#000000" stroke="none">
<path d="M590 4415 c0 -5 -19 -11 -43 -12 -91 -4 -127 -8 -127 -14 0 -6 -57
-21 -64 -16 -2 1 -14 -7 -26 -18 -12 -11 -23 -18 -24 -16 -3 12 -98 -59 -148
-111 -59 -61 -102 -135 -134 -228 -18 -53 -19 -108 -19 -1440 0 -1327 1 -1387
19 -1440 62 -182 193 -319 362 -376 25 -8 54 -16 65 -17 10 -1 19 -4 19 -7 0
-4 88 -6 195 -6 124 1 195 -3 195 -9 0 -7 3 -7 8 0 4 6 55 10 117 10 62 0 113
-4 117 -10 5 -7 8 -7 8 0 0 6 45 10 115 10 70 0 115 -4 115 -10 0 -7 3 -7 8 0
4 6 56 10 120 10 68 0 112 -4 112 -10 0 -7 3 -7 8 0 4 6 55 10 117 10 62 0
113 -4 117 -10 5 -7 8 -7 8 0 0 6 28 10 65 10 37 0 65 -4 65 -10 0 -7 3 -7 8
0 4 6 21 10 37 10 17 0 33 -4 37 -10 5 -7 8 -7 8 0 0 6 16 10 35 10 19 0 35
-4 35 -10 0 -7 3 -7 8 0 4 6 21 10 37 10 17 0 33 -4 37 -10 5 -7 8 -7 8 0 0 6
16 10 35 10 19 0 35 -4 35 -10 0 -7 3 -7 8 0 4 6 21 10 37 10 17 0 33 -4 37
-10 5 -7 8 -7 8 0 0 6 16 10 35 10 19 0 35 -4 35 -10 0 -7 3 -7 8 0 4 6 21 10
37 10 17 0 33 -4 37 -10 5 -7 8 -7 8 0 0 6 35 10 85 10 50 0 85 -4 85 -10 0
-7 3 -7 8 0 4 6 55 10 117 10 62 0 113 -4 117 -10 5 -7 8 -7 8 0 0 6 25 10 55
10 30 0 55 -4 55 -8 0 -5 5 -5 11 -1 14 9 109 11 109 2 0 -3 8 -4 18 -2 38 9
142 9 142 -1 0 -7 3 -7 8 0 4 6 56 10 120 10 68 0 112 -4 112 -10 0 -7 3 -7 8
0 4 6 55 10 117 10 62 0 113 -4 117 -10 5 -7 8 -7 8 0 0 6 11 10 25 10 14 0
25 -4 25 -10 0 -7 3 -7 8 0 4 6 21 10 37 10 17 0 33 -4 37 -10 5 -7 8 -7 8 0
0 6 16 10 35 10 19 0 35 -4 35 -10 0 -7 3 -7 8 0 4 6 21 10 37 10 17 0 33 -4
37 -10 5 -7 8 -7 8 0 0 6 16 10 35 10 19 0 35 -4 35 -10 0 -7 3 -7 8 0 4 6 21
10 37 10 17 0 33 -4 37 -10 5 -7 8 -7 8 0 0 6 16 10 35 10 19 0 35 -4 35 -10
0 -7 3 -7 8 0 4 6 21 10 37 10 17 0 33 -4 37 -10 5 -7 8 -7 8 0 0 6 37 11 88
12 99 1 163 10 176 23 4 4 14 6 21 4 7 -3 16 -1 20 5 3 6 15 11 25 11 10 0 20
3 22 8 2 4 21 16 43 27 44 22 185 159 185 179 0 7 9 24 19 38 11 13 30 57 43
98 l23 75 0 1380 0 1380 -25 70 c-49 140 -146 256 -271 323 -94 51 -155 65
-286 66 -55 1 -93 5 -93 11 0 7 -3 7 -8 0 -4 -5 -20 -10 -37 -10 -16 0 -33 5
-37 10 -5 7 -8 7 -8 0 0 -5 -16 -10 -35 -10 -19 0 -35 5 -35 10 0 7 -3 7 -8 0
-4 -5 -20 -10 -37 -10 -16 0 -33 5 -37 10 -5 7 -8 7 -8 0 0 -5 -16 -10 -35
-10 -19 0 -35 5 -35 10 0 7 -3 7 -8 0 -4 -5 -20 -10 -37 -10 -16 0 -33 5 -37
10 -5 7 -8 7 -8 0 0 -5 -16 -10 -35 -10 -19 0 -35 5 -35 10 0 7 -3 7 -8 0 -4
-5 -20 -10 -37 -10 -16 0 -33 5 -37 10 -5 7 -8 7 -8 0 0 -6 -35 -10 -85 -10
-50 0 -85 4 -85 10 0 7 -3 7 -8 0 -4 -6 -55 -10 -117 -10 -62 0 -113 4 -117
10 -5 7 -8 7 -8 0 0 -5 -25 -10 -55 -10 -30 0 -55 4 -55 8 0 5 -5 5 -11 1 -14
-9 -109 -11 -109 -2 0 3 -8 4 -17 2 -39 -9 -143 -9 -143 1 0 7 -3 7 -8 0 -4
-6 -56 -10 -120 -10 -68 0 -112 4 -112 10 0 7 -3 7 -8 0 -4 -6 -55 -10 -117
-10 -62 0 -113 4 -117 10 -5 7 -8 7 -8 0 0 -5 -11 -10 -25 -10 -14 0 -25 5
-25 10 0 7 -3 7 -8 0 -4 -5 -20 -10 -37 -10 -16 0 -33 5 -37 10 -5 7 -8 7 -8
0 0 -5 -16 -10 -35 -10 -19 0 -35 5 -35 10 0 7 -3 7 -8 0 -4 -5 -20 -10 -37
-10 -16 0 -33 5 -37 10 -5 7 -8 7 -8 0 0 -5 -16 -10 -35 -10 -19 0 -35 5 -35
10 0 7 -3 7 -8 0 -4 -5 -20 -10 -37 -10 -16 0 -33 5 -37 10 -5 7 -8 7 -8 0 0
-5 -16 -10 -35 -10 -19 0 -35 5 -35 10 0 7 -3 7 -8 0 -4 -5 -20 -10 -37 -10
-16 0 -33 5 -37 10 -5 7 -8 7 -8 0 0 -6 -48 -10 -125 -10 -77 0 -125 4 -125
10 0 7 -3 7 -8 0 -4 -6 -55 -10 -117 -10 -62 0 -113 4 -117 10 -5 7 -8 7 -8 0
0 -6 -45 -10 -115 -10 -70 0 -115 4 -115 10 0 7 -3 7 -8 0 -4 -6 -55 -10 -117
-10 -62 0 -113 4 -117 10 -5 7 -8 7 -8 0 0 -6 -45 -10 -115 -10 -70 0 -115 4
-115 10 0 7 -3 7 -8 0 -4 -5 -34 -10 -67 -10 -33 0 -63 5 -67 10 -5 7 -8 7 -8
0z m3020 -2089 c0 -3 -4 -8 -10 -11 -5 -3 -10 -1 -10 4 0 6 5 11 10 11 6 0 10
-2 10 -4z"/>
</g>
</svg>
